<svg xmlns="http://www.w3.org/2000/svg" version="1.1" xmlns:xlink="http://www.w3.org/1999/xlink" xmlns:svgjs="http://svgjs.dev/svgjs" width="1000" height="1000" viewBox="0 0 1000 1000"><rect width="1000" height="1000" fill="rgba(0,0,0,0)"></rect><g transform="matrix(0.7,0,0,0.7,149.57577863529218,453.6919178014185)"><svg viewBox="0 0 396 53" data-background-color="#ffffff" preserveAspectRatio="xMidYMid meet" height="133" width="1000" xmlns="http://www.w3.org/2000/svg" xmlns:xlink="http://www.w3.org/1999/xlink"><g id="tight-bounds" transform="matrix(1,0,0,1,0.2399880863204089,-0.13771904914267452)"><svg viewBox="0 0 395.52 53.275438098285335" height="53.275438098285335" width="395.52"><g><svg viewBox="0 0 453.1807176473964 61.04217554197106" height="53.275438098285335" width="395.52"><g transform="matrix(1,0,0,1,57.660717647396424,8.436364347696436)"><svg viewBox="0 0 395.52 44.16944684657819" height="44.16944684657819" width="395.52"><g id="textblocktransform"><svg viewBox="0 0 395.52 44.16944684657819" height="44.16944684657819" width="395.52" id="textblock"><g><svg viewBox="0 0 395.52 44.16944684657819" height="44.16944684657819" width="395.52"><g transform="matrix(1,0,0,1,0,0)"><svg width="395.52" viewBox="1.4500000476837158 -37.150001525878906 335.3199768066406 37.45000076293945" height="44.16944684657819" data-palette-color="#113f67"><path d="M6.65 0L1.45 0 13.75-36.85 20.15-36.85 32.45 0 27.2 0 23.95-9.65 9.85-9.65 6.65 0ZM16.9-32.45L11.05-14.2 22.7-14.2 16.9-32.45ZM42.6 0L37.55 0 37.55-36.85 52.3-36.85Q54.2-36.85 55.97-36.4 57.75-35.95 59.15-34.75 60.55-33.55 61.35-31.38 62.15-29.2 62.15-25.7L62.15-25.7Q62.15-22.85 61.55-20.95 60.95-19.05 59.97-17.93 59-16.8 57.82-16.23 56.65-15.65 55.5-15.35L55.5-15.35 62.85 0 57.75 0 50.95-14.65Q50.2-14.65 49.12-14.68 48.05-14.7 46.87-14.7 45.7-14.7 44.57-14.75 43.45-14.8 42.6-14.8L42.6-14.8 42.6 0ZM42.6-32.35L42.6-18.7 51.5-18.7Q52.7-18.7 53.7-18.98 54.7-19.25 55.47-20.03 56.25-20.8 56.7-22.18 57.15-23.55 57.15-25.7L57.15-25.7Q57.15-27.8 56.7-29.1 56.25-30.4 55.45-31.1 54.65-31.8 53.65-32.08 52.65-32.35 51.5-32.35L51.5-32.35 42.6-32.35ZM81.44 0L76.39 0 76.39-32.35 65.39-32.35 65.39-36.85 92.44-36.85 92.44-32.35 81.44-32.35 81.44 0ZM104.59 0.2L104.59 0.2Q103.34 0.2 101.94-0.03 100.54-0.25 99.27-0.98 97.99-1.7 97.19-3.2 96.39-4.7 96.39-7.25L96.39-7.25 96.39-29.15Q96.39-31.35 97.07-32.85 97.74-34.35 98.84-35.23 99.94-36.1 101.32-36.48 102.69-36.85 104.04-36.85L104.04-36.85Q107.29-36.8 110.02-36.73 112.74-36.65 115.09-36.55 117.44-36.45 119.59-36.35L119.59-36.35 119.59-32.2 105.39-32.2Q103.54-32.2 102.49-31.25 101.44-30.3 101.44-28.25L101.44-28.25 101.44-20.6 117.34-20.3 117.34-16.4 101.44-16.05 101.44-8.5Q101.44-6.8 102.02-5.95 102.59-5.1 103.52-4.8 104.44-4.5 105.49-4.5L105.49-4.5 119.59-4.5 119.59-0.35Q117.29-0.2 114.74-0.08 112.19 0.05 109.62 0.13 107.04 0.2 104.59 0.2ZM129.74 0L124.89 0 129.09-36.85 134.09-36.85 143.49-6.1 152.74-36.85 157.79-36.85 162.09 0 157.24 0 153.64-30.7 154.49-30.6 145.79 0 141.14 0 132.29-30.6 133.19-30.65 129.74 0ZM173.44 0L168.39 0 168.39-36.85 173.44-36.85 173.44 0ZM191.39 0.3L191.39 0.3Q190.19 0.3 188.66 0.23 187.14 0.15 185.56 0 183.99-0.15 182.56-0.3 181.14-0.45 180.14-0.7L180.14-0.7 180.14-4.6Q181.44-4.5 183.26-4.4 185.09-4.3 187.16-4.25 189.24-4.2 191.19-4.2L191.19-4.2Q193.34-4.2 195.01-4.6 196.69-5 197.66-6.1 198.64-7.2 198.64-9.2L198.64-9.2 198.64-11.35Q198.64-13.6 197.41-14.8 196.19-16 193.69-16L193.69-16 189.94-16Q185.14-16 182.51-18.1 179.89-20.2 179.89-25.3L179.89-25.3 179.89-27.3Q179.89-32.6 182.76-34.88 185.64-37.15 190.94-37.15L190.94-37.15Q192.69-37.15 194.69-36.98 196.69-36.8 198.59-36.55 200.49-36.3 201.74-36.05L201.74-36.05 201.74-32.15Q199.49-32.3 196.71-32.48 193.94-32.65 191.49-32.65L191.49-32.65Q189.39-32.65 187.86-32.18 186.34-31.7 185.51-30.5 184.69-29.3 184.69-27.1L184.69-27.1 184.69-25.6Q184.69-22.9 186.14-21.85 187.59-20.8 190.19-20.8L190.19-20.8 194.24-20.8Q197.39-20.8 199.41-19.65 201.44-18.5 202.44-16.5 203.44-14.5 203.44-11.95L203.44-11.95 203.44-9.35Q203.44-5.45 201.84-3.35 200.24-1.25 197.54-0.48 194.84 0.3 191.39 0.3ZM236.73 0.3L236.73 0.3Q233.13 0.3 230.41-0.4 227.68-1.1 225.86-3 224.03-4.9 223.13-8.6 222.23-12.3 222.23-18.3L222.23-18.3Q222.23-24.3 223.13-28.03 224.03-31.75 225.88-33.73 227.73-35.7 230.43-36.43 233.13-37.15 236.73-37.15L236.73-37.15Q240.43-37.15 243.16-36.43 245.88-35.7 247.68-33.73 249.48-31.75 250.38-28.03 251.28-24.3 251.28-18.3L251.28-18.3Q251.28-12.3 250.38-8.6 249.48-4.9 247.66-3 245.83-1.1 243.11-0.4 240.38 0.3 236.73 0.3ZM236.73-4.2L236.73-4.2Q239.33-4.2 241.16-4.75 242.98-5.3 244.11-6.78 245.23-8.25 245.73-11.03 246.23-13.8 246.23-18.3L246.23-18.3Q246.23-23.05 245.71-25.9 245.18-28.75 244.08-30.2 242.98-31.65 241.16-32.15 239.33-32.65 236.73-32.65L236.73-32.65Q234.28-32.65 232.48-32.15 230.68-31.65 229.53-30.2 228.38-28.75 227.81-25.9 227.23-23.05 227.23-18.3L227.23-18.3Q227.23-13.8 227.71-11.03 228.18-8.25 229.31-6.78 230.43-5.3 232.26-4.75 234.08-4.2 236.73-4.2ZM270.58 0L265.53 0 265.53-32.35 254.53-32.35 254.53-36.85 281.58-36.85 281.58-32.35 270.58-32.35 270.58 0ZM293.73 0.2L293.73 0.2Q292.48 0.2 291.07-0.03 289.68-0.25 288.4-0.98 287.13-1.7 286.32-3.2 285.52-4.7 285.52-7.25L285.52-7.25 285.52-29.15Q285.52-31.35 286.2-32.85 286.88-34.35 287.98-35.23 289.07-36.1 290.45-36.48 291.82-36.85 293.18-36.85L293.18-36.85Q296.43-36.8 299.15-36.73 301.88-36.65 304.23-36.55 306.57-36.45 308.73-36.35L308.73-36.35 308.73-32.2 294.52-32.2Q292.68-32.2 291.63-31.25 290.57-30.3 290.57-28.25L290.57-28.25 290.57-20.6 306.48-20.3 306.48-16.4 290.57-16.05 290.57-8.5Q290.57-6.8 291.15-5.95 291.73-5.1 292.65-4.8 293.57-4.5 294.63-4.5L294.63-4.5 308.73-4.5 308.73-0.35Q306.43-0.2 303.88-0.08 301.32 0.05 298.75 0.13 296.18 0.2 293.73 0.2ZM336.77 0L322.82 0Q320.47 0 318.7-0.73 316.92-1.45 315.97-3.18 315.02-4.9 315.02-7.8L315.02-7.8 315.02-36.85 320.07-36.85 320.07-8.55Q320.07-6.95 320.62-6.08 321.17-5.2 322.07-4.9 322.97-4.6 324.02-4.6L324.02-4.6 336.77-4.6 336.77 0Z" opacity="1" transform="matrix(1,0,0,1,0,0)" fill="#ffffff" class="undefined-text-0" data-fill-palette-color="primary" id="text-0"></path></svg></g></svg></g></svg></g></svg></g><g><svg viewBox="0 0 47.23337131364363 61.04217554197106" height="61.04217554197106" width="47.23337131364363"><g><svg xmlns="http://www.w3.org/2000/svg" xmlns:xlink="http://www.w3.org/1999/xlink" version="1.1" x="0" y="0" viewBox="12.982999801635742 1 75.68599700927734 97.81300354003906" enable-background="new 0 0 100 100" xml:space="preserve" height="61.04217554197106" width="47.23337131364363" class="icon-icon-0" data-fill-palette-color="accent" id="icon-0"><g fill="#87c0cd" data-fill-palette-color="accent"><polygon fill-rule="evenodd" clip-rule="evenodd" points="12.983,10.59 30.001,98.813 24.129,39.764 53.15,37.872 53.096,27.989    64.549,1 53.622,18.977  " fill="#ffffff" data-fill-palette-color="accent"></polygon><polygon fill-rule="evenodd" clip-rule="evenodd" points="59.389,54.548 64.549,1.007 55.809,40.723 36.197,41.768 37.767,62.23    30.001,98.813 42.058,58.914  " fill="#ffffff" data-fill-palette-color="accent"></polygon><polygon fill-rule="evenodd" clip-rule="evenodd" points="62.8,67.182 63.349,56.729 47.37,60.484 47.338,72.281 30.001,98.813    51.681,71.197  " fill="#ffffff" data-fill-palette-color="accent"></polygon><polygon fill-rule="evenodd" clip-rule="evenodd" points="65.711,62.394 80.552,57.663 82.061,45.131 66.162,47.226  " fill="#ffffff" data-fill-palette-color="accent"></polygon><polygon fill-rule="evenodd" clip-rule="evenodd" points="72.07,44.502 83.058,43.085 84.639,32.807 76.56,32.434 64.549,1    72.979,31.967  " fill="#ffffff" data-fill-palette-color="accent"></polygon><polygon fill-rule="evenodd" clip-rule="evenodd" points="87.413,31.294 88.669,21.788 79.125,19.094 64.549,1 79.032,23.437    78.61,30.437  " fill="#ffffff" data-fill-palette-color="accent"></polygon></g></svg></g></svg></g></svg></g><defs></defs></svg><rect width="395.52" height="53.275438098285335" fill="none" stroke="none" visibility="hidden"></rect></g></svg></g></svg>